<svg width="225" height="53" xmlns="http://www.w3.org/2000/svg"><path d="M4.75.05h8.137V8h7.482v7.585h-7.544v14.578c0 2.861 2.963 3.376 5.515 3.376h2.029v7.034H18.34c-7.97 0-13.59-3.417-13.59-10.41V15.585H.2V8h4.55V.05Zm22.147 16.99-2.786-6.285c3.315-2.31 7.524-3.328 12.34-3.328 9.903 0 14.82 6.564 14.82 13.765v18.81h-7.157v-2.379c-1.29 1.35-5.437 2.892-9.712 2.892-6.49 0-11.586-3.374-11.586-10.855 0-5.872 4.425-10.294 12.532-10.11 2.428.062 4.75.522 7.724 1.481-.011-3.395-2.757-6.083-7.666-6.083-3.586 0-6.734 1.014-8.509 2.091Zm16.18 14.092V28.07c-3.363-.9-5.787-1.236-7.664-1.236-3.485.061-4.577 1.76-4.577 3.073 0 1.573 1.273 2.714 4.55 2.714 1.943 0 4.407-.449 7.69-1.49ZM62.933 8v2.808c1.768-1.98 5.052-3.32 8.394-3.32 6.602 0 13.944 3.487 14.128 15.96.183 12.824-7.59 17.003-14.188 17.003-3.277-.061-5.734-1.139-7.477-2.582V52.7h-8.075V8h7.218Zm.857 9.666v13.167c2.11 1.481 4.196 2.091 6.559 2.091 4.793 0 6.907-4.763 6.907-9.475 0-4.974-2.112-8.618-6.969-8.618-2.297 0-4.388.55-6.497 2.835ZM112.738 8l8.197.002V40h-7.89v-2.595c-2.844 2.109-6.465 3.23-9.973 3.046-6.841-.429-12.894-5.648-12.896-17.92V8.002h8.078v14.53c0 7.59 3.097 10.639 7.573 10.577 2.142-.061 4.491-.876 6.911-2.255V8.001Zm17.168 32.639a4.643 4.643 0 0 1-4.65-4.649c0-2.542 2.108-4.65 4.65-4.65 2.542 0 4.65 2.108 4.65 4.65a4.643 4.643 0 0 1-4.65 4.649Zm25.295-5.063 2.11 2.11a12.35 12.35 0 0 1-7.685 2.667c-6.829 0-12.417-5.497-12.417-12.38 0-6.866 5.588-12.381 12.417-12.381 2.927 0 5.616 1.013 7.732 2.704l-2.123 2.11c-1.602-1.227-3.433-1.87-5.61-1.87-5.236 0-9.418 4.181-9.418 9.437 0 5.256 4.182 9.437 9.419 9.437 2.156 0 3.98-.627 5.575-1.834Zm15.768-19.95c6.829 0 12.418 5.516 12.418 12.38 0 6.884-5.59 12.377-12.418 12.377-6.828 0-12.417-5.493-12.417-12.376 0-6.865 5.589-12.38 12.417-12.38Zm0 2.962v-.001c-5.22 0-9.395 4.179-9.395 9.419s4.174 9.416 9.395 9.416c5.221 0 9.4-4.177 9.4-9.416 0-5.239-4.179-9.418-9.4-9.418ZM188.688 16v2.198c1.862-1.395 4.535-2.497 7.377-2.552 4.163-.074 7.075 1.24 8.842 3.986 2.395-2.098 6.107-3.968 9.468-3.986C221.652 15.59 225 19.81 225 28.448V40h-3.016V28.43c0-6.681-2.047-10.006-8.033-9.988-2.71 0-6.097 1.694-8.086 3.184.73 1.828 1.028 4.11 1.02 6.822V40h-3.027V28.43c0-6.736-2.084-10.006-8.088-9.988-2.444.018-5.135 1.059-6.991 2.32V40h-3.035V16h2.943Z" fill="#0074e4" fill-rule="nonzero"/></svg>